<?xml version="1.0" encoding="UTF-8"?>
<svg version="1.1" xmlns="http://www.w3.org/2000/svg" width="88" height="75">
<path d="M0 0 C29.04 0 58.08 0 88 0 C85.36 4.62 82.72 9.24 80 14 C77.51149984 18.44898103 77.51149984 18.44898103 75.02954102 22.90161133 C68.06554739 35.41665904 60.93749583 47.82915908 53.65673828 60.16259766 C52.4554674 62.21994663 51.27407034 64.28894133 50.10498047 66.36474609 C49.48123535 67.46512207 48.85749023 68.56549805 48.21484375 69.69921875 C47.36394165 71.21841919 47.36394165 71.21841919 46.49584961 72.76831055 C46.00221924 73.50476807 45.50858887 74.24122559 45 75 C44.34 75 43.68 75 43 75 C41.47638095 72.35906032 39.952771 69.71811539 38.42919922 67.07714844 C37.08332027 64.74437958 35.7373131 62.41168522 34.39111328 60.07910156 C30.96416634 54.14074008 27.53942626 48.20113928 24.12109375 42.2578125 C17.44345514 30.65457185 10.72687763 19.07884038 3.85888672 7.58691406 C3.34986816 6.73194336 2.84084961 5.87697266 2.31640625 4.99609375 C1.86724854 4.24513428 1.41809082 3.4941748 0.95532227 2.72045898 C-0 1 -0 1 0 0 Z " fill="#D9D6CD" transform="translate(0,0)"/>
</svg>
